#!OML:ASF F:\twosubjects\two\Thursday\Session 1\Rory.ASF
:FULLY-SPECIFIED
:DEGREES
208
root 7.62573 18.3561 -9.85609 0.484859 -7.02478 5.01523
lowerback -3.54029 0.395036 -5.1282
upperback 0.822755 0.774719 -0.475608
thorax 2.77573 0.304287 2.43053
lowerneck -9.06763 -3.97431 -2.92925
upperneck 33.4529 -9.80976 13.031
head 13.7078 -3.14398 4.31333
rclavicle -1.00759e-014 1.09332e-014
rhumerus -34.624 -16.7102 -76.9373
rradius 25.9715
rwrist 23.4446
rhand -26.4434 26.1822
rfingers 7.12502
rthumb 0.117519 -3.79747
lclavicle -1.00759e-014 1.09332e-014
lhumerus -31.6079 27.648 77.2876
lradius 23.7628
lwrist -29.6948
lhand -12.3244 29.1356
lfingers 7.12502
lthumb 13.7444 58.6616
rfemur -5.82876 6.58432 14.8018
rtibia 21.2168
rfoot -14.7756 -14.0314
rtoes 2.84239
lfemur -6.59793 -2.55216 -20.3872
ltibia 16.618
lfoot -10.5775 6.7095
ltoes -1.32868
209
root 7.62748 18.3549 -9.85556 0.481983 -6.92923 5.07719
lowerback -2.90549 0.426394 -4.67596
upperback 0.406924 0.755359 -0.94033
thorax 2.00165 0.328765 1.68821
lowerneck -8.86884 -4.00875 -2.60236
upperneck 33.6464 -10.0685 13.3062
head 13.7906 -3.18771 4.34425
rclavicle 1.71483e-014 9.93923e-015
rhumerus -35.377 -17.357 -77.1319
rradius 25.9312
rwrist 23.9665
rhand -26.2076 25.8796
rfingers 7.12502
rthumb 0.345247 -4.09987
lclavicle 1.71483e-014 9.93923e-015
lhumerus -32.2194 26.8484 76.4256
lradius 23.6729
lwrist -29.4248
lhand -12.1021 29.1136
lfingers 7.12502
lthumb 13.9586 58.625
rfemur -5.80398 6.63102 14.7425
rtibia 21.2324
rfoot -14.8083 -14.1548
rtoes 2.95717
lfemur -6.59524 -2.5671 -20.468
ltibia 16.5893
lfoot -10.5304 6.6865
ltoes -1.70455
210
root 7.62688 18.3558 -9.8565 0.579868 -6.87595 4.9297
lowerback -3.09888 0.479463 -4.68156
upperback 0.526394 0.84019 -0.849468
thorax 2.22674 0.363856 1.79158
lowerneck -9.15689 -4.10611 -2.52993
upperneck 33.5953 -10.2329 13.3214
head 13.8514 -3.23638 4.30585
rclavicle 1.09487e-014 -1.0138e-014
rhumerus -35.208 -17.9076 -76.89
rradius 25.8043
rwrist 24.3581
rhand -26.085 25.8763
rfingers 7.12502
rthumb 0.463617 -4.1029
lclavicle 1.09487e-014 -1.0138e-014
lhumerus -31.934 26.5547 76.696
lradius 23.5348
lwrist -29.2672
lhand -12.062 29.009
lfingers 7.12502
lthumb 13.9972 58.5177
rfemur -5.89762 6.84265 14.9206
rtibia 21.2649
rfoot -14.8783 -14.3654
rtoes 3.57648
lfemur -6.66278 -2.61329 -20.294
ltibia 16.5135
lfoot -10.4825 6.6816
ltoes -1.8651
211
root 7.62563 18.3536 -9.85569 0.586132 -6.96165 4.86633
lowerback -3.14482 0.538886 -4.68168
upperback 0.539358 0.921547 -0.803008
thorax 2.25987 0.403212 1.84402
lowerneck -9.27107 -4.13002 -2.47537
upperneck 33.7093 -10.2759 13.2462
head 13.926 -3.24706 4.26279
rclavicle -8.79312e-015 6.36111e-015
rhumerus -35.1964 -18.113 -76.7597
rradius 25.6704
rwrist 24.299
rhand -26.0783 25.7048
rfingers 7.12502
rthumb 0.470075 -4.27439
lclavicle -8.79312e-015 6.36111e-015
lhumerus -32.0113 26.4033 76.7896
lradius 23.4246
lwrist -28.3627
lhand -12.9994 28.1572
lfingers 7.12502
lthumb 13.0938 57.7262
rfemur -5.92655 6.91535 14.9907
rtibia 21.2877
rfoot -14.9363 -14.3385
rtoes 3.73236
lfemur -6.6445 -2.99141 -20.2209
ltibia 16.4849
lfoot -10.6201 7.09308
ltoes -1.63853
212
root 7.62331 18.3504 -9.85422 0.513506 -7.00684 4.85379
lowerback -3.19003 0.576465 -4.79648
upperback 0.610051 0.979709 -0.729671
thorax 2.35143 0.427046 1.9877
lowerneck -9.31267 -4.14795 -2.52434
upperneck 33.6847 -10.2821 13.2334
head 13.9261 -3.25583 4.26346
rclavicle -1.56263e-014 -1.61016e-014
rhumerus -35.1221 -18.1492 -76.6475
rradius 25.5174
rwrist 24.2569
rhand -26.3075 25.8096
rfingers 7.12502
rthumb 0.248753 -4.17
lclavicle -1.56263e-014 -1.61016e-014
lhumerus -32.0524 26.5581 76.8284
lradius 23.3061
lwrist -27.4175
lhand -13.7545 27.5321
lfingers 7.12502
lthumb 12.3658 57.1464
rfemur -5.87027 6.97293 15.0257
rtibia 21.3263
rfoot -14.9274 -14.3374
rtoes 3.45044
lfemur -6.55517 -3.11539 -20.2004
ltibia 16.4733
lfoot -10.7459 7.24642
ltoes -1.599
213
root 7.62326 18.3532 -9.84946 0.476549 -6.96221 4.89167
lowerback -3.50631 0.576626 -5.12407
upperback 0.85881 1.01758 -0.546654
thorax 2.77585 0.425263 2.36826
lowerneck -9.48898 -4.20026 -2.67278
upperneck 33.4372 -10.2852 13.2351
head 13.8607 -3.27575 4.27398
rclavicle 1.35236e-014 -3.97569e-015
rhumerus -34.7421 -18.0814 -76.4741
rradius 25.3816
rwrist 24.2034
rhand -26.6013 26.213
rfingers 7.12502
rthumb -0.0350538 -3.76674
lclavicle 1.35236e-014 -3.97569e-015
lhumerus -31.9021 26.98 77.0609
lradius 23.5512
lwrist -27.8944
lhand -12.4307 28.6492
lfingers 7.12502
lthumb 13.6419 58.1821
rfemur -5.85468 6.95237 14.9936
rtibia 21.3893
rfoot -14.8803 -14.3839
rtoes 3.27209
lfemur -6.48234 -2.43139 -20.2316
ltibia 16.4211
lfoot -10.5966 6.60013
ltoes -2.00722
214
root 7.62653 18.3557 -9.84304 0.459373 -6.96108 5.03208
lowerback -3.3721 0.568499 -5.02808
upperback 0.764381 0.996066 -0.756051
thorax 2.6093 0.423418 2.09464
lowerneck -9.53746 -4.18981 -2.53437
upperneck 33.5419 -10.3473 13.3005
head 13.9265 -3.27277 4.27194
rclavicle 8.89561e-015 -2.127e-014
rhumerus -34.9577 -18.2439 -76.6088
rradius 25.3339
rwrist 24.2435
rhand -26.8496 26.4909
rfingers 7.12502
rthumb -0.274855 -3.48871
lclavicle 8.89561e-015 -2.127e-014
lhumerus -32.344 26.9845 76.6066
lradius 23.8195
lwrist -28.6182
lhand -11.8356 29.6641
lfingers 7.12502
lthumb 14.2154 59.1576
rfemur -5.86395 6.805 14.8128
rtibia 21.431
rfoot -14.8624 -14.3001
rtoes 2.92815
lfemur -6.44159 -1.93021 -20.3969
ltibia 16.3814
lfoot -10.6345 6.16673
ltoes -1.08014
215
root 7.6316 18.3537 -9.8409 0.486644 -6.9759 4.99959
lowerback -3.52865 0.560902 -5.03101
upperback 0.840423 0.996689 -0.680631
thorax 2.77472 0.417848 2.17693
lowerneck -9.63364 -4.19599 -2.58106
upperneck 33.5285 -10.3228 13.2389
head 13.9361 -3.27119 4.25599
rclavicle 1.09953e-015 9.74045e-015
rhumerus -34.8134 -18.301 -76.4778
rradius 25.1661
rwrist 24.359
rhand -26.8915 26.7718
rfingers 7.12502
rthumb -0.315304 -3.20768
lclavicle 1.09953e-015 9.74045e-015
lhumerus -32.4134 27.4894 76.5204
lradius 23.6123
lwrist -29.6038
lhand -12.2454 29.8635
lfingers 7.12502
lthumb 13.8205 59.3844
rfemur -5.92461 6.75389 14.8117
rtibia 21.4676
rfoot -14.8996 -14.2274
rtoes 2.91226
lfemur -6.46132 -2.16349 -20.3841
ltibia 16.3431
lfoot -10.8865 6.39486
ltoes 0.246048
216
root 7.63487 18.3527 -9.83917 0.473467 -6.94889 4.87099
lowerback -3.63674 0.545973 -4.95374
upperback 0.931009 0.980266 -0.57828
thorax 2.92992 0.404903 2.24062
lowerneck -9.62613 -4.19212 -2.62853
upperneck 33.443 -10.2713 13.1872
head 13.8867 -3.26395 4.24601
rclavicle -5.36719e-015 2.48481e-014
rhumerus -34.6426 -18.435 -76.3263
rradius 24.9892
rwrist 24.5725
rhand -26.4693 26.5109
rfingers 7.12502
rthumb 0.092488 -3.46878
lclavicle -5.36719e-015 2.48481e-014
lhumerus -32.4222 27.9055 76.4336
lradius 23.478
lwrist -30.3567
lhand -11.5263 30.1389
lfingers 7.12502
lthumb 14.5134 59.6112
rfemur -5.92048 6.89691 14.9549
rtibia 21.5108
rfoot -14.9595 -14.3504
rtoes 3.0931
lfemur -6.41248 -2.61136 -20.2568
ltibia 16.2763
lfoot -10.891 6.74937
ltoes 1.76974
217
root 7.63523 18.3529 -9.83661 0.418779 -6.91995 5.03918
lowerback -3.61973 0.550964 -5.11073
upperback 0.932761 0.995396 -0.651719
thorax 2.92011 0.410461 2.25332
lowerneck -9.55763 -4.21821 -2.6665
upperneck 33.4689 -10.3252 13.2456
head 13.8964 -3.28751 4.27176
rclavicle -1.93504e-014 2.98177e-014
rhumerus -34.7369 -18.7396 -76.2308
rradius 24.9866
rwrist 24.7856
rhand -25.8469 25.6069
rfingers 7.12502
rthumb 0.693633 -4.37167
lclavicle -1.93504e-014 2.98177e-014
lhumerus -32.5196 27.7147 76.3254
lradius 23.4346
lwrist -30.0893
lhand -10.9791 30.0946
lfingers 7.12502
lthumb 15.0406 59.5283
rfemur -5.86248 6.97807 14.7933
rtibia 21.5364
rfoot -14.9819 -14.458
rtoes 1.19342
lfemur -6.33163 -2.87909 -20.454
ltibia 16.2081
lfoot -10.8 6.97194
ltoes 3.03451
218
root 7.63837 18.3517 -9.83189 0.541563 -6.97652 5.24546
lowerback -3.79744 0.570468 -5.27422
upperback 0.868098 1.04074 -0.737721
thorax 2.94901 0.431221 2.2608
lowerneck -9.49614 -4.26899 -2.79497
upperneck 33.4815 -10.4198 13.3774
head 13.9176 -3.33215 4.33771
rclavicle 1.36602e-014 -1.47101e-014
rhumerus -34.9395 -18.888 -76.1411
rradius 25.0541
rwrist 24.9131
rhand -25.6495 25.2128
rfingers 7.12502
rthumb 0.884316 -4.76507
lclavicle 1.36602e-014 -1.47101e-014
lhumerus -32.7506 27.7742 76.1302
lradius 23.389
lwrist -30.0029
lhand -11.7072 29.5786
lfingers 7.12502
lthumb 14.3392 59.0634
rfemur -6.01858 6.9111 14.5316
rtibia 21.5721
rfoot -14.9665 -14.3708
rtoes -0.311868
lfemur -6.4273 -2.97155 -20.6994
ltibia 16.1329
lfoot -10.6979 7.16952
ltoes 0.138726
